<?xml version="1.0" encoding="utf-8"?>
<!-- Generator: Adobe Illustrator 26.0.0, SVG Export Plug-In . SVG Version: 6.00 Build 0)  -->
<svg version="1.1" id="Capa_1" xmlns="http://www.w3.org/2000/svg" xmlns:xlink="http://www.w3.org/1999/xlink" x="0px" y="0px"
	 viewBox="0 0 1280 800" style="enable-background:new 0 0 1280 800;" xml:space="preserve">
<style type="text/css">
	.st0{fill:#F26938;}
	.st1{fill:#F0F0F2;}
	.st2{fill:#99BF0F;stroke:#F0F0F2;stroke-miterlimit:10;}
	.st3{fill:#07038C;stroke:#F0F0F2;stroke-miterlimit:10;}
	.st4{fill:#99BF0F;}
	.st5{fill:#07038C;}
</style>
<circle class="st0" cx="332.7" cy="345.1" r="255.8"/>
<g>
	
		<rect x="275.4" y="363" transform="matrix(0.8126 -0.5829 0.5829 0.8126 -190.9165 297.1346)" class="st1" width="182.3" height="164.8"/>
	<polygon points="488.6,459.2 461,479.3 458.5,481.1 453.9,484.5 451.4,486.3 434.5,498.6 432.1,500.4 431.9,500.5 429.5,502.3 
		407.7,518.1 405.3,519.9 404.3,520.6 401.8,522.4 380.3,538 378.7,539.2 377.9,539.8 376.3,541 341.3,566.4 330.3,559.4 326,556.6 
		300.5,540.4 296.2,537.7 294.5,536.6 292.3,535.2 264.7,517.6 264.7,517.6 262.6,516.3 258.7,513.8 257.6,513.1 228.9,494.8 
		227.9,494.2 222.9,491 193.1,472.1 178,462.4 268.7,324.3 335.6,365.4 336.3,365.8 366,384 487.1,458.3 487.1,458.3 	"/>
	
		<rect x="301" y="370.4" transform="matrix(0.8105 -0.5857 0.5857 0.8105 -163.0184 269.7465)" class="st1" width="68.9" height="32.9"/>
	<polygon points="248.7,312 228.6,299.7 140.3,438.4 158.2,449.8 	"/>
	<polygon class="st1" points="263.7,460.6 222.9,491 193.1,472.1 244.1,434.2 	"/>
	<polygon class="st1" points="287.4,491 287.2,491.1 285.9,492.1 257.6,513.1 228.9,494.8 227.9,494.2 266.7,465.3 267.8,464.5 
		276.7,476.5 	"/>
	<polygon class="st1" points="311.1,521.3 309.6,522.4 307,524.3 292.3,535.2 264.7,517.6 264.7,517.6 262.6,516.3 287.8,497.5 
		290.4,495.6 291.5,494.8 	"/>
	<polygon class="st1" points="332.8,551.6 331.3,552.7 326.1,556.5 326,556.6 300.5,540.4 296.2,537.7 306.9,529.8 312.1,525.9 
		313.1,525.1 	"/>
	<polygon class="st1" points="461,479.3 458.5,481.1 458.3,481 374.8,432.8 376.2,430.4 460.8,479.2 	"/>
	<polygon class="st1" points="434.5,498.6 432.1,500.4 431.6,500.1 355.8,456.4 357.2,454 434.1,498.3 	"/>
	<polygon class="st1" points="404.3,520.6 401.8,522.4 401.1,522 331.6,481.8 333,479.4 403.6,520.2 	"/>
	<polygon class="st1" points="378.7,539.2 377.9,539.8 376.3,541 375.4,540.5 312.8,504.3 314.2,501.9 377.8,538.7 	"/>
	<polygon class="st1" points="433,297.2 413.9,311 507.8,446 525.2,433.8 	"/>
</g>
<g>
	<path class="st2" d="M216,164.8c0.6,0,1.1,0.5,1.1,1.1v84.5c0,8.6-2.5,15.7-7.4,21.3c-4.9,5.6-11.1,8.4-18.7,8.4
		c-2.2,0-29.9-0.1-29.9-0.2l0-24.8c0,0,24.5,0,25.6,0c3.3,0,5-2.7,5-8v-81.3c0-0.6,0.5-1.1,1.1-1.1H216z"/>
	<path class="st2" d="M321.4,165.6c1.1,0,1.9,0.9,1.9,1.9v49.1c0,8.3,3,12.4,8.9,12.4c2.5,0,4.7-0.9,6.5-2.6
		c1.8-1.7,2.7-3.8,2.7-6.3c0-2.5-0.8-4.7-2.5-6.4s-3.7-2.6-6.1-2.6c-1,0-2,0.2-3.2,0.7c-1.3,0.5-2.7-0.4-2.7-1.8v-20.7
		c0-1,0.8-1.8,1.8-1.9c1.9-0.1,3.4-0.2,4.5-0.2c8.8,0,16.3,3.2,22.6,9.5c6.3,6.3,9.4,13.9,9.4,22.8c0,9.1-3.2,16.8-9.5,23
		c-6.4,6.2-14.2,9.4-23.5,9.4c-4.7,0-9.2-1-13.6-3.1c-4.4-2-8.1-4.8-11-8.2c-5-6-7.5-13.8-7.5-23.3v-49.9c0-1.1,0.9-1.9,1.9-1.9
		c3.3,0,6.6,0,9.9,0C315,165.6,318.2,165.6,321.4,165.6z"/>
	<path class="st2" d="M395.6,165.6c0.9,0,1.6,0.7,1.6,1.6v49.4c0,8.3,3,12.4,8.9,12.4c2.5,0,4.7-0.9,6.5-2.6
		c1.8-1.7,2.7-3.8,2.7-6.3c0-2.5-0.8-4.7-2.5-6.4c-1.7-1.7-3.7-2.6-6.1-2.6c-1.1,0-2.2,0.3-3.5,0.9c-1.1,0.5-2.4-0.2-2.4-1.5v-21.4
		c0-0.8,0.7-1.6,1.5-1.6c2-0.2,3.6-0.2,4.7-0.2c8.8,0,16.3,3.2,22.6,9.5c6.3,6.3,9.4,13.9,9.4,22.8c0,9.1-3.2,16.8-9.6,23
		c-6.4,6.2-14.2,9.4-23.5,9.4c-4.7,0-9.2-1-13.6-3.1c-4.4-2-8.1-4.8-11-8.2c-5-6-7.5-13.8-7.5-23.3v-50.2c0-0.9,0.7-1.6,1.6-1.6
		H395.6z"/>
	<path class="st2" d="M225.3,276.8v-16.2c0-1.2,1-2.1,2.2-2.1c24,1.1,235.7,0.8,237.9,0.8c5.9,0,10.2-2.6,12.9-7.7
		c0.9-1.7-0.8-3.6-2.6-2.9c-2.5,1-5.1,1.4-7.5,1.4c-5.8,0-10.6-2.2-14.4-6.5c-3.8-4.3-5.7-9.8-5.7-16.4v-37.1c0-1.1,0.9-2.1,2.1-2.1
		h19.3c1.2,0,2.1,0.9,2.1,2.1v31.4c0,3.7,1.6,5.6,4.7,5.6c3,0,4.5-2,4.5-6.1v-30.8c0-1.1,0.9-2.1,2.1-2.1h19.3
		c1.2,0,2.1,0.9,2.1,2.1v53.5c0,10.4-2.9,18.7-8.8,25.1c-7,7.6-15.5,11.4-25.4,11.4c-4.2,0-219.6,0.2-242.8-1.3
		C226.1,278.8,225.3,277.9,225.3,276.8z"/>
	<circle class="st3" cx="312.7" cy="150.8" r="10.7"/>
	<circle class="st3" cx="386.6" cy="150.8" r="10.7"/>
	<g>
		<path class="st2" d="M257.6,228.6c-1.4-0.4-2.7-1.2-3.8-2.4c-1.8-1.8-2.7-4-2.7-6.6c0-2.6,0.9-4.8,2.6-6.6c1.1-1.2,2.4-2,3.8-2.4
			v-23.3c-8,0.6-14.9,3.7-20.6,9.2c-6.4,6.2-9.6,13.9-9.6,23c0,8.9,3.2,16.6,9.6,22.9c5.8,5.7,12.6,8.9,20.6,9.4V228.6z"/>
		<path class="st2" d="M283.4,196.8c-5.8-5.9-12.7-9-20.7-9.5v23.3c1.4,0.4,2.7,1.2,3.8,2.4c1.7,1.8,2.6,4,2.6,6.6
			c0,2.6-0.9,4.8-2.7,6.6c-1.1,1.2-2.4,2-3.8,2.4v23.3c7.9-0.5,14.8-3.7,20.6-9.4c6.4-6.3,9.6-14,9.6-23
			C292.9,210.7,289.7,203.1,283.4,196.8z"/>
	</g>
</g>
<circle class="st0" cx="943" cy="322" r="217.5"/>
<g>
	
		<rect x="885.7" y="275.6" transform="matrix(0.8126 -0.5829 0.5829 0.8126 -25.5796 636.4828)" class="st1" width="182.3" height="164.8"/>
	<polygon points="1098.9,371.8 1071.3,391.9 1068.8,393.7 1064.2,397.1 1061.7,398.9 1044.8,411.2 1042.4,413 1042.2,413.1 
		1039.8,414.9 1018.1,430.7 1015.6,432.5 1014.6,433.2 1012.2,435 990.6,450.6 989,451.8 988.2,452.4 986.6,453.6 951.6,479 
		940.6,472 936.3,469.2 910.8,453 906.5,450.3 904.8,449.2 902.6,447.8 875,430.2 875,430.2 872.9,428.9 869,426.4 867.9,425.7 
		839.2,407.4 838.2,406.8 833.2,403.6 803.5,384.7 788.3,375 879,236.9 945.9,278 946.6,278.4 976.3,296.6 1097.4,370.9 
		1097.4,370.9 	"/>
	
		<rect x="911.3" y="283" transform="matrix(0.8105 -0.5857 0.5857 0.8105 3.8032 610.6375)" class="st1" width="68.9" height="32.9"/>
	<polygon points="859,224.6 838.9,212.3 750.6,351 768.5,362.4 	"/>
	<polygon class="st1" points="874,373.2 833.2,403.6 803.4,384.7 854.4,346.8 	"/>
	<polygon class="st1" points="897.7,403.6 897.5,403.7 896.2,404.7 867.9,425.7 839.2,407.4 838.2,406.8 877,377.9 878.1,377.1 
		887,389.1 	"/>
	<polygon class="st1" points="921.4,433.9 919.9,435 917.3,436.9 902.6,447.8 875,430.2 875,430.2 872.9,428.9 898.1,410.1 
		900.7,408.2 901.8,407.4 	"/>
	<polygon class="st1" points="943.1,464.2 941.6,465.3 936.4,469.1 936.3,469.2 910.8,453 906.5,450.3 917.2,442.4 922.4,438.5 
		923.4,437.7 	"/>
	<polygon class="st1" points="1071.3,391.9 1068.8,393.7 1068.6,393.6 985.1,345.4 986.5,343 1071.1,391.8 	"/>
	<polygon class="st1" points="1044.8,411.2 1042.4,413 1041.9,412.7 966.1,369 967.5,366.6 1044.4,410.9 	"/>
	<polygon class="st1" points="1014.6,433.2 1012.1,435 1011.4,434.6 941.9,394.4 943.3,392 1013.9,432.8 	"/>
	<polygon class="st1" points="989,451.8 988.2,452.4 986.6,453.6 985.7,453.1 923.1,416.9 924.5,414.5 988.1,451.3 	"/>
	<polygon class="st1" points="1043.3,209.8 1024.2,223.6 1118.1,358.6 1135.5,346.4 	"/>
</g>
<g>
	<path class="st4" d="M826.3,581.9c0.6,0,1.1,0.5,1.1,1.1v84.5c0,8.6-2.5,15.7-7.4,21.3c-4.9,5.6-11.1,8.4-18.7,8.4
		c-2.2,0-29.9-0.1-29.9-0.2v-24.8c0,0,24.5,0,25.6,0c3.3,0,5-2.7,5-8V583c0-0.6,0.5-1.1,1.1-1.1H826.3z"/>
	<path class="st4" d="M931.7,582.6c1.1,0,1.9,0.9,1.9,1.9v49.1c0,8.3,3,12.4,8.9,12.4c2.5,0,4.7-0.9,6.5-2.6
		c1.8-1.7,2.7-3.8,2.7-6.3c0-2.5-0.8-4.7-2.5-6.4s-3.7-2.6-6.1-2.6c-1,0-2,0.2-3.2,0.7c-1.3,0.5-2.7-0.4-2.7-1.8v-20.7
		c0-1,0.8-1.8,1.8-1.9c1.9-0.1,3.4-0.2,4.5-0.2c8.8,0,16.3,3.2,22.6,9.5c6.3,6.3,9.4,13.9,9.4,22.8c0,9.1-3.2,16.8-9.5,23
		c-6.4,6.2-14.2,9.4-23.5,9.4c-4.7,0-9.2-1-13.6-3.1c-4.4-2-8.1-4.8-11-8.2c-5-6-7.5-13.8-7.5-23.3v-49.9c0-1.1,0.9-1.9,1.9-1.9
		c3.3,0,6.6,0,9.9,0C925.3,582.6,928.5,582.6,931.7,582.6z"/>
	<path class="st4" d="M1005.9,582.6c0.9,0,1.6,0.7,1.6,1.6v49.4c0,8.3,3,12.4,8.9,12.4c2.5,0,4.7-0.9,6.5-2.6
		c1.8-1.7,2.7-3.8,2.7-6.3c0-2.5-0.8-4.7-2.5-6.4c-1.7-1.7-3.7-2.6-6.1-2.6c-1.1,0-2.2,0.3-3.5,0.9c-1.1,0.5-2.4-0.2-2.4-1.5v-21.4
		c0-0.8,0.7-1.6,1.5-1.6c2-0.2,3.6-0.2,4.7-0.2c8.8,0,16.3,3.2,22.6,9.5c6.3,6.3,9.4,13.9,9.4,22.8c0,9.1-3.2,16.8-9.6,23
		c-6.4,6.2-14.2,9.4-23.5,9.4c-4.7,0-9.2-1-13.6-3.1c-4.4-2-8.1-4.8-11-8.2c-5-6-7.5-13.8-7.5-23.3v-50.2c0-0.9,0.7-1.6,1.6-1.6
		H1005.9z"/>
	<path class="st4" d="M835.6,693.8v-16.2c0-1.2,1-2.1,2.2-2.1c24,1.1,235.7,0.8,237.9,0.8c5.9,0,10.2-2.6,12.9-7.7
		c0.9-1.7-0.8-3.6-2.6-2.9c-2.5,1-5.1,1.4-7.5,1.4c-5.8,0-10.6-2.2-14.4-6.5c-3.8-4.3-5.7-9.8-5.7-16.4v-37.1c0-1.1,0.9-2.1,2.1-2.1
		h19.3c1.2,0,2.1,0.9,2.1,2.1v31.4c0,3.7,1.6,5.6,4.7,5.6c3,0,4.5-2,4.5-6.1v-30.8c0-1.1,0.9-2.1,2.1-2.1h19.3
		c1.2,0,2.1,0.9,2.1,2.1v53.5c0,10.4-2.9,18.7-8.8,25.1c-7,7.6-15.5,11.4-25.4,11.4c-4.2,0-219.6,0.2-242.8-1.3
		C836.4,695.8,835.6,694.9,835.6,693.8z"/>
	<circle class="st5" cx="923" cy="567.8" r="10.7"/>
	<circle class="st5" cx="996.9" cy="567.8" r="10.7"/>
	<g>
		<path class="st4" d="M867.9,645.7c-1.4-0.4-2.7-1.2-3.8-2.4c-1.8-1.8-2.7-4-2.7-6.6c0-2.6,0.9-4.8,2.6-6.6c1.1-1.2,2.4-2,3.8-2.4
			v-23.3c-8,0.6-14.9,3.7-20.6,9.2c-6.4,6.2-9.6,13.9-9.6,23c0,8.9,3.2,16.6,9.6,22.9c5.8,5.7,12.6,8.9,20.6,9.4V645.7z"/>
		<path class="st4" d="M893.7,613.8c-5.8-5.9-12.7-9-20.7-9.5v23.3c1.4,0.4,2.7,1.2,3.8,2.4c1.7,1.8,2.6,4,2.6,6.6
			c0,2.6-0.9,4.8-2.7,6.6c-1.1,1.2-2.4,2-3.8,2.4V669c7.9-0.5,14.8-3.7,20.6-9.4c6.4-6.3,9.6-14,9.6-23
			C903.2,627.8,900,620.2,893.7,613.8z"/>
	</g>
</g>
</svg>
